<svg width="180" height="50" viewBox="0 0 180 50" xmlns="http://www.w3.org/2000/svg">
  <defs>
    <linearGradient id="logoGradient" x1="0%" y1="0%" x2="100%" y2="0%">
      <stop offset="0%" style="stop-color:#1D4ED8;stop-opacity:1" />
      <stop offset="100%" style="stop-color:#1E40AF;stop-opacity:1" />
    </linearGradient>
    <linearGradient id="vaultGradient" x1="0%" y1="0%" x2="100%" y2="0%">
      <stop offset="0%" style="stop-color:#D97706;stop-opacity:1" />
      <stop offset="100%" style="stop-color:#B45309;stop-opacity:1" />
    </linearGradient>
  </defs>
  
  <!-- Shield/Vault Icon -->
  <g transform="translate(8, 8)">
    <path d="M17 8C17 3.582 13.418 0 9 0C4.582 0 1 3.582 1 8V12C1 18.627 6.373 24 13 24H23C29.627 24 35 18.627 35 12V8Z" 
          fill="url(#logoGradient)" opacity="0.1"/>
    <path d="M17 8C17 5.791 15.209 4 13 4H5C2.791 4 1 5.791 1 8V12C1 16.971 5.029 21 10 21C14.971 21 19 16.971 19 12V8Z" 
          fill="url(#logoGradient)"/>
    <circle cx="10" cy="12" r="3" fill="white"/>
    <path d="M8.5 12L9.5 13L11.5 11" stroke="url(#logoGradient)" stroke-width="1.5" fill="none" stroke-linecap="round" stroke-linejoin="round"/>
  </g>
  
  <!-- ArbVault Text -->
  <g transform="translate(45, 12)">
    <!-- Arb -->
    <text x="0" y="20" font-family="system-ui, -apple-system, sans-serif" font-size="24" font-weight="600" fill="url(#logoGradient)">Arb</text>
    <!-- Vault -->
    <text x="48" y="20" font-family="system-ui, -apple-system, sans-serif" font-size="24" font-weight="600" fill="url(#vaultGradient)">Vault</text>
  </g>
  
  <!-- Tagline -->
  <text x="48" y="38" font-family="system-ui, -apple-system, sans-serif" font-size="10" font-weight="400" fill="#64748B">Premium Curated Marketplace</text>
  
  <!-- Trust Badge -->
  <g transform="translate(155, 10)">
    <circle cx="10" cy="10" r="8" fill="url(#logoGradient)" opacity="0.15"/>
    <path d="M6 10L8 12L14 6" stroke="url(#logoGradient)" stroke-width="1.5" fill="none" stroke-linecap="round" stroke-linejoin="round"/>
  </g>
</svg>